<svg width="20" height="20" viewBox="0 0 20 20" fill="none" xmlns="http://www.w3.org/2000/svg">
<path fill-rule="evenodd" clip-rule="evenodd" d="M9.07498 3.23987C6.03738 3.23987 3.57495 5.7023 3.57495 8.73989C3.57495 11.7774 6.03738 14.2399 9.07498 14.2399C10.4135 14.2399 11.641 13.7612 12.5945 12.9665L16.3881 16.7601L17.0952 16.053L13.3016 12.2594C14.0963 11.3059 14.575 10.0784 14.575 8.73989C14.575 5.7023 12.1125 3.23987 9.07498 3.23987ZM4.57495 8.73989C4.57495 6.25458 6.58967 4.23987 9.07498 4.23987C11.5603 4.23987 13.575 6.25458 13.575 8.73989C13.575 9.98263 13.0719 11.107 12.2569 11.9218C11.4421 12.7368 10.3177 13.2399 9.07498 13.2399C6.58967 13.2399 4.57495 11.2252 4.57495 8.73989Z" fill="black"/>
</svg>
