<svg width="20" height="20" viewBox="0 0 20 20" fill="none" xmlns="http://www.w3.org/2000/svg">
<path fill-rule="evenodd" clip-rule="evenodd" d="M13 6.29634C13 7.93274 11.6568 9.2593 10 9.2593C8.34314 9.2593 7 7.93274 7 6.29634C7 4.65994 8.34314 3.33337 10 3.33337C11.6568 3.33337 13 4.65994 13 6.29634ZM11.875 6.29634C11.875 7.31909 11.0355 8.14819 10 8.14819C8.96447 8.14819 8.125 7.31909 8.125 6.29634C8.125 5.27359 8.96447 4.44449 10 4.44449C11.0355 4.44449 11.875 5.27359 11.875 6.29634Z" fill="black"/>
<path fill-rule="evenodd" clip-rule="evenodd" d="M10 10.3704C7.5466 10.3704 5.36835 11.5339 4 13.3326V16.6667H16V13.3326C14.6316 11.5339 12.4534 10.3704 10 10.3704ZM14.875 13.7203C13.7041 12.3494 11.9548 11.4815 10 11.4815C8.04518 11.4815 6.29592 12.3494 5.125 13.7203V15.5556H14.875V13.7203Z" fill="black"/>
</svg>
